<svg width="200" viewBox="0 0 410 94">
    <g transform="matrix(1,0,0,1,0,0)" fill="#146c43">    
        <rect width="90" height="94"></rect>
    </g>
    <g transform="matrix(1.5110510711790226,0,0,1.5110510711790226,16.28281430725758,-11.292288062094755)" fill="#f9dacf">
        <path d="M3.9 60 c-0.84 0 -1.44 -0.42 -1.44 -1.14 l0 -0.24 c0 -1.68 2.4 -2.4 2.4 -5.16 l0 -29.52 c0 -2.76 -2.4 -3.48 -2.4 -5.16 l0 -0.24 c0 -0.72 0.54 -1.14 1.38 -1.14 l28.2 0 c1.32 0 1.8 0.6 2.04 1.92 l1.44 7.56 c0.18 1.08 -0.48 1.74 -1.5 1.74 l-0.3 0 c-3.36 0 -5.1 -7.02 -9.36 -7.02 l-5.76 0 c-1.44 0 -2.76 0.72 -2.76 2.88 l0 13.44 l6.72 0 c2.76 0 3.6 -4.86 5.34 -4.86 l0.54 0 c0.72 0 1.14 0.54 1.14 1.38 l0 10.8 c0 0.84 -0.42 1.38 -1.14 1.38 l-0.54 0 c-1.74 0 -2.58 -4.5 -5.34 -4.5 l-6.72 0 l0 11.34 c0 2.76 2.7 3.48 2.7 5.16 l0 0.24 c0 0.72 -0.6 1.14 -1.44 1.14 l-13.2 0 z">
        </path>
    </g>
    <g transform="matrix(1.398992709310252,0,0,1.398992709310252,106.64241869842047,5.603806407495906)" fill="#146c43">
        <path d="M18.92 15 l-13.12 0 l0 9.48 l10.84 0 l0 2.84 l-10.84 0 l0 12.68 l-3.4 0 l0 -28 l16.52 0 l0 3 z M31.16 18.84 c4.72 0 10.68 3.6 10.68 10.8 s-5.96 10.76 -10.68 10.76 s-10.64 -3.56 -10.64 -10.76 s5.92 -10.8 10.64 -10.8 z M31.16 21.76 c-3.36 0 -7.44 2.6 -7.44 7.88 c0 5.24 4.08 7.84 7.44 7.84 c3.4 0 7.48 -2.6 7.48 -7.84 c0 -5.28 -4.08 -7.88 -7.48 -7.88 z M56.52 18.88 c0.36 0 0.68 0 1 0.08 l0 3.08 c-0.32 -0.08 -0.68 -0.08 -0.96 -0.08 c-3.96 0 -7.2 2.84 -7.76 7.52 l0 10.52 l-3.28 0 l0 -20.8 l3.28 0 l0 5.48 c0.76 -3.08 3.6 -5.8 7.72 -5.8 z M70.75999999999999 18.84 c4.72 0 11.04 3.6 10.2 11.96 l-17.56 0 c0.52 4.56 4.08 6.8 7.84 6.8 c2.88 0 4.72 -0.8 6.28 -2.32 l1.92 1.76 c-1.88 2.24 -4.6 3.36 -8.24 3.36 c-5.36 0 -11.08 -3.6 -11.08 -10.76 c0 -7.2 5.92 -10.8 10.64 -10.8 z M70.75999999999999 21.68 c-3.08 0 -6.76 2.2 -7.36 6.68 l14.68 0 c-0.4 -4.48 -4.2 -6.68 -7.32 -6.68 z M94.84 24.240000000000002 c-0.8 -1.68 -2.12 -2.72 -4.04 -2.72 c-2 0 -3.36 1.2 -3.36 2.8 c0 1.44 0.76 2.48 2.84 3.24 l2.08 0.72 c3.48 1.24 6.04 2.52 6.04 6.16 c0 3.96 -3.84 6 -7.4 6 c-3.6 0 -6.8 -2.08 -7.56 -5.56 l2.64 -0.8 c0.64 2.28 2.52 3.68 4.92 3.68 c2.08 0 4.16 -1.2 4.16 -3.28 c0 -1.8 -1.24 -2.76 -3.4 -3.52 l-2.32 -0.84 c-3.64 -1.28 -5.2 -3.32 -5.2 -5.8 c0 -3.24 2.88 -5.48 6.48 -5.48 c3.36 0 5.72 1.84 6.84 4.6 z M111.32 21.96 l-4.4 0 l0 13.4 c0 1.24 0.48 2 1.68 2 c1.04 0 1.8 -0.24 2.68 -0.64 l0 2.8 c-0.88 0.44 -1.92 0.72 -3.56 0.72 c-2.12 0 -4.04 -0.96 -4.04 -4.6 l0 -13.68 l-2.88 0 l0 -2.76 l2.88 0 l0 -4.88 l3.24 0 l0 4.88 l4.4 0 l0 2.76 z M149.76 12 l3.52 0 l-12.52 28 l-2.76 0 l-12.48 -28 l3.52 0 l10.36 23.64 z M165.92 18.84 c3.68 0 6.52 2.04 7.48 4.28 l0 -3.92 l3.28 0 l0 20.8 l-3.28 0 l0 -4 c-0.96 2.4 -3.8 4.4 -7.48 4.4 c-4.72 0 -10.44 -3.56 -10.44 -10.8 c0 -7.16 5.72 -10.76 10.44 -10.76 z M166.27999999999997 21.76 c-3.52 0 -7.6 2.6 -7.6 7.84 c0 5.28 4.08 7.88 7.6 7.88 c3.56 0 7.28 -2.52 7.28 -7.88 c0 -5.32 -3.72 -7.84 -7.28 -7.84 z M184.51999999999998 11.719999999999999 l0 28.28 l-3.28 0 l0 -28.28 l3.28 0 z M192.35999999999999 11.719999999999999 l0 28.28 l-3.28 0 l0 -28.28 l3.28 0 z M213.56 19.16 l3.28 0 l-12.64 28.44 l-3.28 0 l3.72 -8.28 l-9 -20.16 l3.28 0 l7.32 16.56 z">
        </path>
    </g>
</svg>